<svg width="204" height="39" viewBox="0 0 204 39" fill="none" xmlns="http://www.w3.org/2000/svg">
<g clip-path="url(#clip0_382_5)">
<path d="M120.379 34.5519L122.067 26.4995C122.091 26.3891 122.043 26.3023 121.932 26.2866L120.831 26.184L120.87 25.8291L122.899 25.5294L122.154 28.834L121.187 32.801H121.322C121.758 31.9256 123.327 28.8734 124.175 28.8734C124.96 28.8734 125.301 29.8908 125.301 30.782C125.301 32.0123 124.635 33.9604 123.85 34.7964C123.359 35.3169 122.804 35.6008 122.218 35.6008C121.338 35.6008 120.308 34.8516 120.371 34.544L120.379 34.5519ZM123.446 34.6229C124.08 33.9446 124.651 32.107 124.651 30.9476C124.651 30.1984 124.389 29.5201 123.938 29.4649C123.51 29.4649 122.44 31.3577 121.124 33.8026L120.981 34.4415C121.298 34.7806 121.948 35.2065 122.432 35.2065C122.749 35.2065 123.121 34.9778 123.454 34.6307L123.446 34.6229Z" fill="white"/>
<path d="M124.508 38.2113C124.508 37.8722 124.722 37.6356 125 37.6356C125.317 37.6356 125.586 37.959 125.491 38.3691L126.18 38.5268C126.339 38.4558 128.067 35.5298 128.067 35.5298L127.829 35.4588L127.773 29.67L127.377 29.5832L126.339 30.7031L126.117 30.4665C126.379 29.9854 127.124 28.9128 127.536 28.9128C127.797 28.9128 128.344 29.323 128.344 29.5359V34.8752H128.447L130.849 30.5927L131.007 30.1274C130.745 30.088 130.397 29.9145 130.397 29.5043C130.397 29.1968 130.65 28.9128 130.944 28.9128C131.356 28.9128 131.633 29.2204 131.633 29.6463C131.633 30.1432 131.395 30.5769 130.983 31.2552L128.962 34.6465L128.201 35.8768C127.021 38.3769 126.529 39.0158 125.507 39.0158C124.976 39.0158 124.5 38.6924 124.5 38.2271L124.508 38.2113Z" fill="white"/>
<path d="M169.184 31.547C169.469 31.1211 169.612 30.64 169.612 30.1116C169.612 29.7488 169.54 29.4176 169.406 29.0942C169.271 28.7788 169.089 28.5027 168.851 28.2661C168.621 28.0295 168.344 27.8402 168.019 27.7062C167.702 27.5642 167.361 27.5011 166.996 27.5011H163.747C163.612 27.5011 163.541 27.5642 163.541 27.6904V35.6245C163.541 35.7585 163.612 35.8295 163.747 35.8295H163.985C164.119 35.8295 164.191 35.7585 164.191 35.6245V32.7143H166.941C167.036 32.7143 167.123 32.7143 167.202 32.6985C167.274 32.6906 167.353 32.6748 167.424 32.6591L168.811 35.727C168.851 35.798 168.898 35.8295 168.962 35.8295H169.358C169.429 35.8295 169.469 35.8059 169.493 35.7585C169.517 35.7112 169.509 35.6639 169.485 35.6087L168.066 32.4855C168.526 32.2805 168.898 31.9729 169.184 31.5391V31.547ZM168.32 31.5549C168.122 31.7205 167.892 31.8546 167.63 31.9414C167.369 32.0281 167.099 32.0754 166.814 32.0754H164.199V28.1321H166.988C167.266 28.1321 167.527 28.1873 167.765 28.2898C168.003 28.3923 168.217 28.5343 168.399 28.7157C168.581 28.8971 168.724 29.1021 168.819 29.3466C168.922 29.5832 168.97 29.8435 168.97 30.1116C168.97 30.4192 168.914 30.6952 168.795 30.9397C168.677 31.1842 168.518 31.3893 168.32 31.5549ZM155.203 27.5011H149.299C149.164 27.5011 149.093 27.5721 149.093 27.7062V27.927C149.093 28.0768 149.164 28.1478 149.299 28.1478H151.938V35.6245C151.938 35.7585 152.009 35.8295 152.144 35.8295H152.382C152.517 35.8295 152.588 35.7585 152.588 35.6245V28.1478H155.203C155.354 28.1478 155.425 28.0768 155.425 27.9428V27.6983C155.425 27.6273 155.401 27.58 155.354 27.5484C155.306 27.5169 155.259 27.5011 155.195 27.5011H155.203ZM136.911 27.6983V27.9191C136.911 28.069 136.983 28.1399 137.118 28.1399H139.408V35.6166C139.408 35.7507 139.479 35.8216 139.622 35.8216H139.844C139.987 35.8216 140.058 35.7507 140.058 35.6166V27.4853H137.11C136.975 27.4853 136.904 27.5563 136.904 27.6904L136.911 27.6983ZM162.154 35.1907H157.058V31.7994H161.084C161.227 31.7994 161.298 31.7363 161.298 31.618V31.3262C161.298 31.2079 161.227 31.1448 161.084 31.1448H157.058V28.1321H162.083C162.209 28.1321 162.273 28.069 162.273 27.9507V27.651C162.273 27.5484 162.209 27.4932 162.083 27.4932H156.598C156.479 27.4932 156.416 27.5563 156.416 27.6746V35.6481C156.416 35.7664 156.479 35.8295 156.598 35.8295H162.162C162.289 35.8295 162.352 35.7743 162.352 35.6718V35.3327C162.352 35.238 162.289 35.1828 162.162 35.1828L162.154 35.1907ZM203.739 32.383C203.564 32.1306 203.334 31.9177 203.057 31.76C202.78 31.6022 202.463 31.4682 202.122 31.3656C201.773 31.2631 201.432 31.1763 201.091 31.1054C200.79 31.0344 200.497 30.9634 200.212 30.8845C199.926 30.8057 199.673 30.7031 199.443 30.5769C199.221 30.4508 199.039 30.3088 198.904 30.1353C198.769 29.9618 198.698 29.7567 198.698 29.5043C198.698 29.1889 198.769 28.9286 198.912 28.7236C199.055 28.5185 199.237 28.3529 199.467 28.2346C199.689 28.1163 199.942 28.0295 200.22 27.9901C200.497 27.9428 200.774 27.927 201.044 27.9349C201.527 27.9349 201.916 28.0216 202.217 28.1636C202.518 28.3134 202.803 28.4948 203.089 28.7314C203.152 28.7867 203.208 28.8182 203.255 28.8419C203.311 28.8655 203.366 28.8576 203.422 28.8182L203.612 28.6053C203.659 28.5579 203.675 28.5106 203.675 28.4554C203.675 28.4002 203.651 28.3529 203.612 28.3135C203.263 27.9743 202.867 27.7219 202.415 27.5484C201.963 27.3749 201.48 27.2882 200.957 27.2882C200.037 27.2882 199.324 27.4853 198.801 27.8797C198.278 28.274 198.024 28.8024 198.024 29.4807C198.024 30.088 198.262 30.5612 198.746 30.8924C199.229 31.2315 199.934 31.4997 200.87 31.7126C201.099 31.76 201.361 31.8152 201.646 31.8783C201.932 31.9492 202.201 32.0439 202.455 32.1622C202.708 32.2884 202.914 32.4461 203.089 32.6433C203.255 32.8404 203.342 33.0849 203.342 33.3767C203.342 33.6922 203.271 33.9683 203.136 34.197C202.994 34.4257 202.811 34.6229 202.589 34.7727C202.367 34.9225 202.106 35.0409 201.813 35.1118C201.519 35.1828 201.218 35.2222 200.909 35.2222C200.331 35.2222 199.847 35.1197 199.451 34.9068C199.063 34.6938 198.722 34.4257 198.436 34.0944C198.389 34.0392 198.341 34.0077 198.294 33.984C198.246 33.9683 198.191 33.9761 198.143 34.0156L197.921 34.2049C197.858 34.2679 197.842 34.3232 197.866 34.3705C197.89 34.4257 197.921 34.473 197.953 34.5203C198.333 34.9699 198.769 35.3011 199.261 35.5141C199.752 35.727 200.299 35.8374 200.909 35.8374C201.313 35.8374 201.702 35.7901 202.074 35.6876C202.447 35.585 202.772 35.4352 203.065 35.2301C203.35 35.0251 203.58 34.7648 203.746 34.4572C203.913 34.1496 204 33.7869 204 33.3767C204 32.9666 203.913 32.6512 203.739 32.3988V32.383ZM181.048 27.9428V27.6983C181.048 27.6273 181.024 27.58 180.977 27.5484C180.929 27.5169 180.882 27.5011 180.818 27.5011H170.008C169.873 27.5011 169.802 27.5721 169.802 27.7062V27.927C169.802 28.0768 169.873 28.1478 170.008 28.1478H172.647V35.6245C172.647 35.7585 172.718 35.8295 172.853 35.8295H173.091C173.226 35.8295 173.297 35.7585 173.297 35.6245V28.1478H180.826C180.977 28.1478 181.048 28.0768 181.048 27.9428ZM196.067 31.547C196.352 31.1211 196.495 30.64 196.495 30.1116C196.495 29.7488 196.423 29.4176 196.289 29.0942C196.154 28.7788 195.972 28.5027 195.734 28.2661C195.504 28.0295 195.227 27.8402 194.902 27.7062C194.585 27.5642 194.244 27.5011 193.879 27.5011H190.63C190.495 27.5011 190.424 27.5642 190.424 27.6904V35.6245C190.424 35.7585 190.495 35.8295 190.63 35.8295H190.868C191.002 35.8295 191.074 35.7585 191.074 35.6245V32.7143H193.824C193.919 32.7143 194.006 32.7143 194.085 32.6985C194.157 32.6906 194.236 32.6748 194.307 32.6591L195.694 35.727C195.734 35.798 195.781 35.8295 195.845 35.8295H196.241C196.312 35.8295 196.352 35.8059 196.376 35.7585C196.4 35.7112 196.392 35.6639 196.368 35.6087L194.949 32.4855C195.409 32.2805 195.781 31.9729 196.067 31.5391V31.547ZM195.203 31.5549C195.005 31.7205 194.775 31.8546 194.513 31.9414C194.252 32.0281 193.982 32.0754 193.697 32.0754H191.082V28.1321H193.871C194.149 28.1321 194.41 28.1873 194.648 28.2898C194.886 28.3923 195.1 28.5343 195.282 28.7157C195.464 28.8971 195.607 29.1021 195.702 29.3466C195.805 29.5832 195.853 29.8435 195.853 30.1116C195.853 30.4192 195.797 30.6952 195.678 30.9397C195.56 31.1842 195.401 31.3893 195.203 31.5549ZM188.664 27.4538H188.442C188.3 27.4538 188.229 27.5248 188.229 27.6588V28.7157C188.229 28.8813 188.229 29.0469 188.229 29.2125V29.7567C188.229 29.946 188.229 30.1353 188.229 30.3246C188.229 30.5139 188.229 30.7031 188.229 30.8924C188.229 31.0738 188.229 31.2552 188.229 31.4366C188.229 31.6022 188.229 31.7678 188.229 31.9335V32.3594C188.229 32.4698 188.229 32.5802 188.229 32.6906C188.229 32.7616 188.229 32.8326 188.229 32.9035C188.229 33.1954 188.165 33.495 188.046 33.7632C187.919 34.0471 187.745 34.2995 187.531 34.5124C187.317 34.7254 187.063 34.8989 186.77 35.0251C186.477 35.1513 186.168 35.2144 185.843 35.2144C185.518 35.2144 185.201 35.1513 184.908 35.0251C184.615 34.8989 184.361 34.7254 184.147 34.5124C183.933 34.2995 183.759 34.0471 183.632 33.7632C183.497 33.4556 183.449 33.1401 183.449 32.8089V27.6588C183.449 27.5248 183.378 27.4538 183.235 27.4538H183.014C182.871 27.4538 182.8 27.5248 182.8 27.6588V32.6669C182.8 32.7695 182.8 32.872 182.8 32.9745C182.808 33.3373 182.895 33.7001 183.037 34.0313C183.196 34.3941 183.418 34.7175 183.687 34.9856C183.957 35.2538 184.282 35.4746 184.654 35.6324C185.019 35.7901 185.423 35.869 185.835 35.869C186.247 35.869 186.651 35.7901 187.024 35.6324C187.388 35.4746 187.721 35.2538 187.991 34.9856C188.26 34.7175 188.482 34.3941 188.641 34.0313C188.767 33.7317 188.847 33.4162 188.87 33.0928C188.878 32.9509 188.87 32.8089 188.87 32.6669V27.6667C188.87 27.5327 188.799 27.4617 188.656 27.4617L188.664 27.4538ZM180.557 30.6952C180.279 30.4192 179.954 30.1984 179.59 30.0406C179.217 29.8829 178.821 29.804 178.409 29.804C177.997 29.804 177.593 29.8829 177.22 30.0406C176.856 30.1984 176.523 30.4192 176.253 30.6952C175.984 30.9713 175.762 31.2946 175.603 31.6574C175.445 32.0281 175.366 32.4224 175.366 32.8404C175.366 33.2584 175.445 33.6528 175.603 34.0156C175.762 34.3784 175.984 34.7017 176.253 34.9699C176.523 35.238 176.848 35.4588 177.22 35.6166C177.585 35.7743 177.989 35.8532 178.401 35.8532C178.813 35.8532 179.217 35.7743 179.59 35.6166C179.954 35.4588 180.287 35.238 180.557 34.9699C180.826 34.7017 181.048 34.3784 181.207 34.0156C181.365 33.6528 181.444 33.2506 181.444 32.8404C181.444 32.4303 181.365 32.0281 181.207 31.6574C181.048 31.2946 180.826 30.9634 180.557 30.6952ZM180.604 33.7632C180.477 34.0471 180.303 34.2995 180.089 34.5124C179.875 34.7254 179.622 34.8989 179.328 35.0251C179.035 35.1513 178.726 35.2144 178.401 35.2144C178.076 35.2144 177.759 35.1513 177.466 35.0251C177.173 34.8989 176.919 34.7254 176.705 34.5124C176.491 34.2995 176.317 34.0471 176.19 33.7632C176.063 33.4793 176 33.1638 176 32.8404C176 32.5171 176.063 32.2095 176.19 31.9177C176.317 31.6259 176.491 31.3735 176.705 31.1606C176.919 30.9476 177.173 30.7741 177.466 30.6479C177.759 30.5217 178.068 30.4586 178.401 30.4586C178.734 30.4586 179.035 30.5217 179.328 30.6479C179.622 30.7741 179.875 30.9476 180.089 31.1606C180.303 31.3735 180.477 31.6259 180.604 31.9177C180.731 32.2095 180.794 32.5171 180.794 32.8404C180.794 33.1638 180.731 33.4793 180.604 33.7632ZM147.777 27.5011H147.555C147.413 27.5011 147.341 27.5721 147.341 27.7062V34.5282L142.681 27.5958C142.642 27.5405 142.594 27.5011 142.507 27.5011H142.285C142.142 27.5011 142.071 27.5721 142.071 27.7062V35.6324C142.071 35.7664 142.142 35.8374 142.285 35.8374H142.507C142.649 35.8374 142.721 35.7664 142.721 35.6324V28.7945L147.381 35.727C147.429 35.7901 147.46 35.8374 147.563 35.8374H147.785C147.928 35.8374 147.999 35.7664 147.999 35.6324V27.7062C147.999 27.5721 147.928 27.5011 147.785 27.5011H147.777Z" fill="white"/>
<path d="M5.10396 19.7563H0V19.1569H2.25082V2.42123H0V1.82184H3.56643L9.57389 16.0417L15.5893 1.82184H19.0844V2.42123H16.8336V19.1648H19.0844V19.7642H13.711V19.1648H15.835V2.91021L9.72448 17.3903H9.11422L2.97995 2.88655V19.1569H5.10396V19.7563Z" fill="white"/>
<path d="M29.2685 16.8934C28.6107 19.2358 26.9939 20.0166 24.9412 20.0166C23.1105 20.0166 21.3035 19.0544 21.3035 16.5858C21.3035 14.2435 22.9361 12.6582 27.4615 12.6582H29.1734V11.4595C29.1734 8.8095 28.0718 7.40566 25.7813 7.40566C24.2913 7.40566 22.8014 8.10758 22.413 9.51142C22.9757 9.53508 23.1422 9.89787 23.1422 10.2133C23.1422 10.6313 22.8727 10.9153 22.4606 10.9153C22.0247 10.9153 21.7552 10.5998 21.7552 10.1581C21.7552 8.44671 23.3878 6.82993 25.9557 6.82993C28.7613 6.82993 30.1324 8.41516 30.1324 11.4831V17.3035C30.1324 19.0228 30.814 19.2752 31.3053 19.2752C32.1613 19.2752 32.5258 18.5496 32.5258 16.6489H32.9855C32.9855 18.9124 32.4466 20.0008 31.0834 20.0008C30.061 20.0008 29.1496 19.4251 29.2764 16.8777L29.2685 16.8934ZM29.1734 14.9691V13.2024H27.4615C23.6256 13.2024 22.31 14.5274 22.31 16.4754C22.31 18.526 23.7524 19.3068 25.2424 19.3068C27.3664 19.3068 29.1734 18.0843 29.1734 14.9691Z" fill="white"/>
<path d="M44.6834 19.0544H46.7836V19.6538C44.9529 19.6538 44.4853 19.7327 44.1445 20.0166L43.8988 19.8588V16.0417C43.3361 18.5102 41.6004 20.0166 39.5002 20.0166C36.7897 20.0166 34.2694 17.7058 34.2694 13.439C34.2694 9.1723 36.7104 6.83782 39.5002 6.83782C41.7193 6.83782 43.3123 8.26532 43.8274 10.4026C43.7799 8.53347 43.7323 5.07118 43.7323 3.51749V0.859656H41.6559V0.260263C43.7561 0.260263 44.1682 0.260263 44.4377 0L44.6834 0.157735V19.0544ZM35.2759 13.439C35.2522 17.5717 37.4475 19.4172 39.6032 19.4172C41.9254 19.4172 43.7323 17.1064 43.7323 13.5652V13.2024C43.7323 9.53508 41.9491 7.42932 39.6032 7.42932C37.1146 7.42932 35.2759 9.71648 35.2759 13.4311V13.439Z" fill="white"/>
<path d="M48.5748 13.3365C48.5748 9.62184 50.6751 6.83781 53.8294 6.83781C56.9837 6.83781 58.8858 9.59029 58.8858 12.7608V13.1788H49.6051V13.3838C49.6051 16.8698 51.0713 19.4172 54.1226 19.4172C56.3497 19.4172 57.7366 18.2499 58.2993 16.0653L58.7907 16.2231C58.1804 18.7153 56.4923 20.0166 54.0513 20.0166C50.6037 20.0166 48.5828 17.2641 48.5828 13.3365H48.5748ZM49.5972 12.6109H57.8793C57.7604 9.92942 56.5636 7.41355 53.8215 7.41355C51.0793 7.41355 49.7161 10.0398 49.5972 12.6109Z" fill="white"/>
<path d="M63.8867 19.1569H65.987V19.7563H60.8354V19.1569H62.9357V7.68959H60.8354V7.09019C63.0546 7.09019 63.3478 7.06653 63.6173 6.82993L63.8867 6.964V19.1569ZM63.2527 3.66734C62.6424 3.66734 62.4681 3.12316 62.4681 2.83923C62.4681 2.55531 62.6345 1.97958 63.2527 1.97958C63.8709 1.97958 64.0611 2.55531 64.0611 2.83923C64.0611 3.12316 63.8867 3.66734 63.2527 3.66734Z" fill="white"/>
<path d="M67.4056 19.7563V19.1569H69.5059V7.68958H67.4056V7.09019C69.5059 7.09019 69.7278 7.06653 69.9972 6.82993L70.2667 6.964V10.4499C70.6075 8.39939 71.6616 6.83781 73.7618 6.83781C75.2993 6.83781 76.3772 7.69747 76.3772 9.51931C76.3772 10.0398 76.1315 10.4026 75.6718 10.4026C75.2122 10.4026 74.9665 10.0872 74.9665 9.7007C74.9665 9.31425 75.2597 8.97512 75.8462 8.97512C75.6005 7.8552 74.7208 7.38989 73.746 7.38989C71.6695 7.38989 70.4728 9.23539 70.4728 12.8475V19.1648H72.89V19.7642H67.4215L67.4056 19.7563Z" fill="white"/>
<path d="M85.7529 16.8934C85.0951 19.2358 83.4783 20.0166 81.4256 20.0166C79.5948 20.0166 77.7878 19.0544 77.7878 16.5858C77.7878 14.2435 79.4205 12.6582 83.9459 12.6582H85.6578V11.4595C85.6578 8.8095 84.5561 7.40566 82.2578 7.40566C80.7678 7.40566 79.2778 8.10758 78.8895 9.51142C79.4522 9.53508 79.6186 9.89787 79.6186 10.2133C79.6186 10.6313 79.3491 10.9153 78.937 10.9153C78.5011 10.9153 78.2317 10.5998 78.2317 10.1581C78.2317 8.44671 79.8643 6.82993 82.4321 6.82993C85.2377 6.82993 86.6088 8.41516 86.6088 11.4831V17.3035C86.6088 19.0228 87.2904 19.2752 87.7818 19.2752C88.6377 19.2752 89.0023 18.5496 89.0023 16.6489H89.462C89.462 18.9124 88.923 20.0008 87.5599 20.0008C86.5375 20.0008 85.6261 19.4251 85.7529 16.8777V16.8934ZM85.6578 14.9691V13.2024H83.9459C80.11 13.2024 78.7944 14.5274 78.7944 16.4754C78.7944 18.526 80.2368 19.3068 81.7268 19.3068C83.8508 19.3068 85.6578 18.0843 85.6578 14.9691Z" fill="white"/>
<path d="M103.736 20.0166C98.9487 20.0166 96.9198 15.4186 96.9198 10.7654C96.9198 6.11223 99.1944 1.56158 103.664 1.56158C105.939 1.56158 107.453 2.46855 108.206 3.74621L108.546 1.58524H109.062V7.09808H108.427C108.427 3.71466 106.422 2.18463 103.712 2.18463C100.51 2.18463 97.9501 5.15005 97.9501 10.7654C97.9501 16.3808 100.272 19.3935 103.862 19.3935C106.113 19.3935 108.507 18.0686 108.507 14.3776H109.141V20.0166H108.602L108.261 17.7294C107.239 19.5749 105.162 20.0166 103.744 20.0166H103.736Z" fill="white"/>
<path d="M111.804 13.4154C111.804 9.62184 113.928 6.83781 117.106 6.83781C120.284 6.83781 122.432 9.62184 122.432 13.4154C122.432 17.2089 120.308 20.0166 117.106 20.0166C113.904 20.0166 111.804 17.2089 111.804 13.4154ZM112.802 13.4154C112.802 16.7909 114.34 19.4172 117.098 19.4172C119.856 19.4172 121.425 16.8146 121.425 13.4154C121.425 10.0162 119.864 7.43721 117.098 7.43721C114.332 7.43721 112.802 10.0083 112.802 13.4154Z" fill="white"/>
<path d="M124.262 19.1569H126.363V0.859656H124.262V0.260263C126.41 0.260263 126.854 0.236603 127.068 0L127.314 0.157735V19.1569H129.414V19.7563H124.262V19.1569Z" fill="white"/>
<path d="M130.706 19.1569H132.806V0.859656H130.706V0.260263C132.854 0.260263 133.297 0.236603 133.511 0L133.757 0.157735V19.1569H135.857V19.7563H130.706V19.1569Z" fill="white"/>
<path d="M137.696 13.3365C137.696 9.62184 139.796 6.83781 142.951 6.83781C146.105 6.83781 148.007 9.59029 148.007 12.7608V13.1788H138.726V13.3838C138.726 16.8698 140.193 19.4172 143.244 19.4172C145.471 19.4172 146.858 18.2499 147.421 16.0653L147.912 16.2231C147.302 18.7153 145.614 20.0166 143.172 20.0166C139.725 20.0166 137.704 17.2641 137.704 13.3365H137.696ZM138.726 12.6109H147.008C146.89 9.92942 145.693 7.41355 142.951 7.41355C140.208 7.41355 138.845 10.0398 138.726 12.6109Z" fill="white"/>
<path d="M150.305 13.439C150.305 9.17229 152.723 6.83781 155.631 6.83781C158.001 6.83781 159.76 8.36784 159.76 10.4736C159.76 11.0178 159.515 11.3333 159.079 11.3333C158.643 11.3333 158.35 11.0493 158.35 10.6313C158.35 10.2449 158.619 9.85055 159.182 9.85055C158.865 8.3915 157.422 7.43721 155.734 7.43721C153.071 7.43721 151.312 9.72437 151.312 13.439C151.312 17.1537 153.166 19.4172 155.663 19.4172C157.375 19.4172 158.865 18.5891 159.642 15.9628L160.133 16.1205C159.404 18.9282 157.565 20.0166 155.568 20.0166C152.564 20.0166 150.313 17.4455 150.313 13.439H150.305Z" fill="white"/>
<path d="M163.549 16.0417V7.69747H161.353V7.17695H162.352C163.62 7.17695 163.866 6.34884 163.866 4.945V2.42123H164.476V7.09808H169.485V7.69747H164.5V15.8051C164.5 18.1474 165.38 19.4172 166.917 19.4172C168.455 19.4172 169.263 18.2736 169.263 15.5685H169.802C169.802 18.5575 168.922 20.0166 166.751 20.0166C164.944 20.0166 163.549 18.8493 163.549 16.0417Z" fill="white"/>
<path d="M174.224 19.1569H176.324V19.7563H171.173V19.1569H173.273V7.68959H171.173V7.09019C173.392 7.09019 173.685 7.06653 173.955 6.82993L174.224 6.964V19.1569ZM173.582 3.66734C172.972 3.66734 172.798 3.12316 172.798 2.83923C172.798 2.55531 172.972 1.97958 173.582 1.97958C174.193 1.97958 174.391 2.55531 174.391 2.83923C174.391 3.12316 174.216 3.66734 173.582 3.66734Z" fill="white"/>
<path d="M178.155 13.4154C178.155 9.62184 180.279 6.83781 183.457 6.83781C186.635 6.83781 188.783 9.62184 188.783 13.4154C188.783 17.2089 186.659 20.0166 183.457 20.0166C180.256 20.0166 178.155 17.2089 178.155 13.4154ZM179.154 13.4154C179.154 16.7909 180.691 19.4172 183.449 19.4172C186.207 19.4172 187.777 16.8146 187.777 13.4154C187.777 10.0162 186.215 7.43721 183.449 7.43721C180.683 7.43721 179.154 10.0083 179.154 13.4154Z" fill="white"/>
<path d="M195.845 19.7563H190.741V19.1569H192.841V7.68958H190.741V7.09019C192.865 7.09019 193.063 7.03498 193.332 6.82993L193.602 6.964V10.237C194.038 8.47037 195.242 6.82993 197.683 6.82993C200.299 6.82993 201.908 8.43882 201.908 12.1298V19.149H204.008V19.7484H198.904V19.149H200.957V12.1298C200.957 8.90414 199.538 7.57917 197.39 7.57917C195.242 7.57917 193.8 9.00667 193.8 12.3349V19.149H195.853V19.7484L195.845 19.7563Z" fill="white"/>
</g>
<defs>
<clipPath id="clip0_382_5">
<rect width="204" height="39" fill="white"/>
</clipPath>
</defs>
</svg>
